ffmpeg started on 2026-01-01 at 18:44:40
Report written to "D:\Convert\FFMetrics\reports\ssim_report-6.txt"
Log level: 32
Command line:
ffmpeg -hide_banner -nostdin -i "F:\\\xc0\xed\xe8\xec\xe5\\\xce\xed\xe3\xee\xe8\xed\xe3\xe8\\!_37_\xc7\xe8\xec\xe0_2025\\JamClub\\\xc4\xee\xea\xf2\xee\xf0 \xd1\xf2\xee\xf3\xed\\\xd2\xc2-4\\JamClub_Dr_Stone_Science_Future_03_1080p_HEVC(42).mkv" -i "F:\\\xc0\xed\xe8\xec\xe5\\\xce\xed\xe3\xee\xe8\xed\xe3\xe8\\!_37_\xc7\xe8\xec\xe0_2025\\JamClub\\\xc4\xee\xea\xf2\xee\xf0 \xd1\xf2\xee\xf3\xed\\\xd2\xc2-4\\JamClub_Dr_Stone_Science_Future_03_1080p.mp4" -lavfi "[0:v]settb=AVTB,setpts=PTS-STARTPTS,format=pix_fmts=yuv420p10le,fps=24000/1001,scale=1920:1080:flags=bicubic:out_range=limited:out_chroma_loc=left[main];[1:v]settb=AVTB,setpts=PTS-STARTPTS,format=pix_fmts=yuv420p,fps=24000/1001,scale=1920:1080:flags=bicubic:out_range=limited:out_chroma_loc=left[ref];[main][ref]ssim=eof_action=endall:stats_file='D\\:/Convert/FFMetrics/logs/ssim_logfile-6.txt'" -f null -
Input #0, matroska,webm, from 'F:\Аниме\Онгоинги\!_37_Зима_2025\JamClub\Доктор Стоун\ТВ-4\JamClub_Dr_Stone_Science_Future_03_1080p_HEVC(42).mkv':
  Metadata:
    COMPATIBLE_BRANDS: mp42mp41
    MAJOR_BRAND     : mp42
    MINOR_VERSION   : 0
    ENCODER         : Lavf61.7.100
  Duration: 00:24:22.17, start: -0.021000, bitrate: 1806 kb/s
  Stream #0:0(eng): Video: hevc (Main 10), yuv420p10le(tv, progressive), 1920x1080 [SAR 1:1 DAR 16:9], 23.98 fps, 23.98 tbr, 1k tbn (default)
      Metadata:
        HANDLER_NAME    : Mainconcept Video Media Handler
        VENDOR_ID       : [0][0][0][0]
        ENCODER         : Lavc61.19.100 libx265
        BPS             : 1609131
        DURATION        : 00:24:22.127708333
        NUMBER_OF_FRAMES: 35056
        NUMBER_OF_BYTES : 294094355
        _STATISTICS_WRITING_APP: mkvpropedit v94.0 ('Initiate') 64-bit
        _STATISTICS_WRITING_DATE_UTC: 2026-01-01 15:41:14
        _STATISTICS_TAGS: BPS DURATION NUMBER_OF_FRAMES NUMBER_OF_BYTES
  Stream #0:1(eng): Audio: aac (LC), 48000 Hz, stereo, fltp (default)
      Metadata:
        HANDLER_NAME    : #Mainconcept MP4 Sound Media Handler
        VENDOR_ID       : [0][0][0][0]
        ENCODER         : Lavc61.19.100 aac
        BPS             : 193637
        DURATION        : 00:24:22.144000000
        NUMBER_OF_FRAMES: 68539
        NUMBER_OF_BYTES : 35390813
        _STATISTICS_WRITING_APP: mkvpropedit v94.0 ('Initiate') 64-bit
        _STATISTICS_WRITING_DATE_UTC: 2026-01-01 15:41:14
        _STATISTICS_TAGS: BPS DURATION NUMBER_OF_FRAMES NUMBER_OF_BYTES
Input #1, mov,mp4,m4a,3gp,3g2,mj2, from 'F:\Аниме\Онгоинги\!_37_Зима_2025\JamClub\Доктор Стоун\ТВ-4\JamClub_Dr_Stone_Science_Future_03_1080p.mp4':
  Metadata:
    major_brand     : mp42
    minor_version   : 0
    compatible_brands: mp42mp41
    creation_time   : 2025-02-16T13:45:21.000000Z
  Duration: 00:24:22.13, start: 0.000000, bitrate: 5181 kb/s
  Stream #1:0[0x1](eng): Video: h264 (Main) (avc1 / 0x31637661), yuv420p(progressive), 1920x1080 [SAR 1:1 DAR 16:9], 4861 kb/s, 23.98 fps, 23.98 tbr, 24k tbn (default)
      Metadata:
        creation_time   : 2025-02-16T13:45:21.000000Z
        handler_name    : Mainconcept Video Media Handler
        vendor_id       : [0][0][0][0]
        encoder         : AVC Coding
  Stream #1:1[0x2](eng): Audio: aac (LC) (mp4a / 0x6134706D), 48000 Hz, stereo, fltp, 317 kb/s (default)
      Metadata:
        creation_time   : 2025-02-16T13:45:21.000000Z
        handler_name    : #Mainconcept MP4 Sound Media Handler
        vendor_id       : [0][0][0][0]
Stream mapping:
  Stream #0:0 (hevc) -> settb:default
  Stream #1:0 (h264) -> settb:default
  ssim:default -> Stream #0:0 (wrapped_avframe)
  Stream #0:1 -> #0:1 (aac (native) -> pcm_s16le (native))
Output #0, null, to 'pipe:':
  Metadata:
    COMPATIBLE_BRANDS: mp42mp41
    MAJOR_BRAND     : mp42
    MINOR_VERSION   : 0
    encoder         : Lavf61.7.100
  Stream #0:0: Video: wrapped_avframe, yuv420p10le(tv, progressive), 1920x1080 [SAR 1:1 DAR 16:9], q=2-31, 200 kb/s, 23.98 fps, 23.98 tbn
      Metadata:
        encoder         : Lavc61.19.100 wrapped_avframe
  Stream #0:1(eng): Audio: pcm_s16le, 48000 Hz, stereo, s16, 1536 kb/s (default)
      Metadata:
        HANDLER_NAME    : #Mainconcept MP4 Sound Media Handler
        VENDOR_ID       : [0][0][0][0]
        _STATISTICS_TAGS: BPS DURATION NUMBER_OF_FRAMES NUMBER_OF_BYTES
        BPS             : 193637
        DURATION        : 00:24:22.144000000
        NUMBER_OF_FRAMES: 68539
        NUMBER_OF_BYTES : 35390813
        _STATISTICS_WRITING_APP: mkvpropedit v94.0 ('Initiate') 64-bit
        _STATISTICS_WRITING_DATE_UTC: 2026-01-01 15:41:14
        encoder         : Lavc61.19.100 pcm_s16le
frame=  116 fps=0.0 q=-0.0 size=N/A time=00:00:04.83 bitrate=N/A speed=9.25x    frame=  280 fps=271 q=-0.0 size=N/A time=00:00:11.67 bitrate=N/A speed=11.3x    frame=  476 fps=308 q=-0.0 size=N/A time=00:00:19.85 bitrate=N/A speed=12.8x    frame=  727 fps=350 q=-0.0 size=N/A time=00:00:30.32 bitrate=N/A speed=14.6x    frame=  942 fps=364 q=-0.0 size=N/A time=00:00:39.28 bitrate=N/A speed=15.2x    frame= 1162 fps=375 q=-0.0 size=N/A time=00:00:48.46 bitrate=N/A speed=15.7x    frame= 1388 fps=383 q=-0.0 size=N/A time=00:00:57.89 bitrate=N/A speed=  16x    frame= 1622 fps=392 q=-0.0 size=N/A time=00:01:07.65 bitrate=N/A speed=16.4x    frame= 1858 fps=400 q=-0.0 size=N/A time=00:01:17.49 bitrate=N/A speed=16.7x    frame= 2110 fps=408 q=-0.0 size=N/A time=00:01:28.00 bitrate=N/A speed=  17x    frame= 2354 fps=414 q=-0.0 size=N/A time=00:01:38.18 bitrate=N/A speed=17.3x    frame= 2581 fps=417 q=-0.0 size=N/A time=00:01:47.64 bitrate=N/A speed=17.4x    frame= 2820 fps=421 q=-0.0 size=N/A time=00:01:57.61 bitrate=N/A speed=17.6x    frame= 3051 fps=422 q=-0.0 size=N/A time=00:02:07.25 bitrate=N/A speed=17.6x    frame= 3272 fps=423 q=-0.0 size=N/A time=00:02:16.46 bitrate=N/A speed=17.6x    frame= 3492 fps=423 q=-0.0 size=N/A time=00:02:25.64 bitrate=N/A speed=17.7x    frame= 3713 fps=423 q=-0.0 size=N/A time=00:02:34.86 bitrate=N/A speed=17.6x    frame= 3919 fps=422 q=-0.0 size=N/A time=00:02:43.45 bitrate=N/A speed=17.6x    frame= 4108 fps=419 q=-0.0 size=N/A time=00:02:51.33 bitrate=N/A speed=17.5x    frame= 4307 fps=417 q=-0.0 size=N/A time=00:02:59.63 bitrate=N/A speed=17.4x    frame= 4482 fps=414 q=-0.0 size=N/A time=00:03:06.93 bitrate=N/A speed=17.3x    frame= 4709 fps=415 q=-0.0 size=N/A time=00:03:16.40 bitrate=N/A speed=17.3x    frame= 4935 fps=415 q=-0.0 size=N/A time=00:03:25.83 bitrate=N/A speed=17.3x    frame= 5157 fps=416 q=-0.0 size=N/A time=00:03:35.08 bitrate=N/A speed=17.4x    frame= 5357 fps=415 q=-0.0 size=N/A time=00:03:43.43 bitrate=N/A speed=17.3x    frame= 5581 fps=415 q=-0.0 size=N/A time=00:03:52.77 bitrate=N/A speed=17.3x    frame= 5819 fps=417 q=-0.0 size=N/A time=00:04:02.70 bitrate=N/A speed=17.4x    frame= 6072 fps=420 q=-0.0 size=N/A time=00:04:13.25 bitrate=N/A speed=17.5x    frame= 6294 fps=420 q=-0.0 size=N/A time=00:04:22.51 bitrate=N/A speed=17.5x    frame= 6528 fps=421 q=-0.0 size=N/A time=00:04:32.27 bitrate=N/A speed=17.6x    frame= 6723 fps=420 q=-0.0 size=N/A time=00:04:40.40 bitrate=N/A speed=17.5x    frame= 6877 fps=416 q=-0.0 size=N/A time=00:04:46.82 bitrate=N/A speed=17.4x    frame= 7021 fps=412 q=-0.0 size=N/A time=00:04:52.83 bitrate=N/A speed=17.2x    frame= 7166 fps=408 q=-0.0 size=N/A time=00:04:58.88 bitrate=N/A speed=  17x    frame= 7323 fps=405 q=-0.0 size=N/A time=00:05:05.43 bitrate=N/A speed=16.9x    frame= 7492 fps=403 q=-0.0 size=N/A time=00:05:12.47 bitrate=N/A speed=16.8x    frame= 7649 fps=400 q=-0.0 size=N/A time=00:05:19.02 bitrate=N/A speed=16.7x    frame= 7778 fps=397 q=-0.0 size=N/A time=00:05:24.40 bitrate=N/A speed=16.5x    frame= 7919 fps=393 q=-0.0 size=N/A time=00:05:30.28 bitrate=N/A speed=16.4x    frame= 8066 fps=391 q=-0.0 size=N/A time=00:05:36.41 bitrate=N/A speed=16.3x    frame= 8197 fps=387 q=-0.0 size=N/A time=00:05:41.88 bitrate=N/A speed=16.2x    frame= 8369 fps=386 q=-0.0 size=N/A time=00:05:49.05 bitrate=N/A speed=16.1x    frame= 8563 fps=386 q=-0.0 size=N/A time=00:05:57.14 bitrate=N/A speed=16.1x    frame= 8711 fps=384 q=-0.0 size=N/A time=00:06:03.32 bitrate=N/A speed=  16x    frame= 8928 fps=384 q=-0.0 size=N/A time=00:06:12.37 bitrate=N/A speed=  16x    frame= 9105 fps=384 q=-0.0 size=N/A time=00:06:19.75 bitrate=N/A speed=  16x    frame= 9301 fps=383 q=-0.0 size=N/A time=00:06:27.92 bitrate=N/A speed=  16x    frame= 9507 fps=384 q=-0.0 size=N/A time=00:06:36.52 bitrate=N/A speed=  16x    frame= 9736 fps=385 q=-0.0 size=N/A time=00:06:46.07 bitrate=N/A speed=16.1x    frame= 9959 fps=386 q=-0.0 size=N/A time=00:06:55.37 bitrate=N/A speed=16.1x    frame=10133 fps=385 q=-0.0 size=N/A time=00:07:02.63 bitrate=N/A speed=16.1x    frame=10345 fps=385 q=-0.0 size=N/A time=00:07:11.47 bitrate=N/A speed=16.1x    frame=10562 fps=386 q=-0.0 size=N/A time=00:07:20.52 bitrate=N/A speed=16.1x    frame=10768 fps=386 q=-0.0 size=N/A time=00:07:29.11 bitrate=N/A speed=16.1x    frame=10973 fps=387 q=-0.0 size=N/A time=00:07:37.66 bitrate=N/A speed=16.1x    frame=11175 fps=387 q=-0.0 size=N/A time=00:07:46.09 bitrate=N/A speed=16.1x    frame=11374 fps=387 q=-0.0 size=N/A time=00:07:54.39 bitrate=N/A speed=16.1x    frame=11545 fps=386 q=-0.0 size=N/A time=00:08:01.52 bitrate=N/A speed=16.1x    frame=11733 fps=385 q=-0.0 size=N/A time=00:08:09.36 bitrate=N/A speed=16.1x    frame=11913 fps=385 q=-0.0 size=N/A time=00:08:16.87 bitrate=N/A speed=  16x    frame=12112 fps=385 q=-0.0 size=N/A time=00:08:25.17 bitrate=N/A speed=16.1x    frame=12323 fps=385 q=-0.0 size=N/A time=00:08:33.97 bitrate=N/A speed=16.1x    frame=12544 fps=386 q=-0.0 size=N/A time=00:08:43.18 bitrate=N/A speed=16.1x    frame=12771 fps=387 q=-0.0 size=N/A time=00:08:52.65 bitrate=N/A speed=16.1x    frame=13008 fps=388 q=-0.0 size=N/A time=00:09:02.54 bitrate=N/A speed=16.2x    frame=13217 fps=388 q=-0.0 size=N/A time=00:09:11.25 bitrate=N/A speed=16.2x    frame=13412 fps=388 q=-0.0 size=N/A time=00:09:19.39 bitrate=N/A speed=16.2x    frame=13559 fps=386 q=-0.0 size=N/A time=00:09:25.52 bitrate=N/A speed=16.1x    frame=13713 fps=385 q=-0.0 size=N/A time=00:09:31.94 bitrate=N/A speed=16.1x    frame=13936 fps=386 q=-0.0 size=N/A time=00:09:41.24 bitrate=N/A speed=16.1x    frame=14121 fps=385 q=-0.0 size=N/A time=00:09:48.96 bitrate=N/A speed=16.1x    frame=14274 fps=384 q=-0.0 size=N/A time=00:09:55.34 bitrate=N/A speed=  16x    frame=14445 fps=383 q=-0.0 size=N/A time=00:10:02.47 bitrate=N/A speed=  16x    frame=14611 fps=383 q=-0.0 size=N/A time=00:10:09.40 bitrate=N/A speed=  16x    frame=14800 fps=383 q=-0.0 size=N/A time=00:10:17.28 bitrate=N/A speed=  16x    frame=15019 fps=383 q=-0.0 size=N/A time=00:10:26.41 bitrate=N/A speed=  16x    frame=15184 fps=382 q=-0.0 size=N/A time=00:10:33.29 bitrate=N/A speed=15.9x    frame=15371 fps=382 q=-0.0 size=N/A time=00:10:41.09 bitrate=N/A speed=15.9x    frame=15564 fps=382 q=-0.0 size=N/A time=00:10:49.14 bitrate=N/A speed=15.9x    frame=15748 fps=382 q=-0.0 size=N/A time=00:10:56.82 bitrate=N/A speed=15.9x    frame=15950 fps=382 q=-0.0 size=N/A time=00:11:05.24 bitrate=N/A speed=15.9x    frame=16160 fps=382 q=-0.0 size=N/A time=00:11:14.00 bitrate=N/A speed=15.9x    frame=16376 fps=382 q=-0.0 size=N/A time=00:11:23.01 bitrate=N/A speed=15.9x    frame=16556 fps=382 q=-0.0 size=N/A time=00:11:30.52 bitrate=N/A speed=15.9x    frame=16723 fps=381 q=-0.0 size=N/A time=00:11:37.48 bitrate=N/A speed=15.9x    frame=16909 fps=381 q=-0.0 size=N/A time=00:11:45.24 bitrate=N/A speed=15.9x    frame=17097 fps=381 q=-0.0 size=N/A time=00:11:53.08 bitrate=N/A speed=15.9x    frame=17310 fps=381 q=-0.0 size=N/A time=00:12:01.97 bitrate=N/A speed=15.9x    frame=17510 fps=381 q=-0.0 size=N/A time=00:12:10.31 bitrate=N/A speed=15.9x    frame=17733 fps=382 q=-0.0 size=N/A time=00:12:19.61 bitrate=N/A speed=15.9x    frame=17953 fps=382 q=-0.0 size=N/A time=00:12:28.78 bitrate=N/A speed=  16x    frame=18176 fps=383 q=-0.0 size=N/A time=00:12:38.09 bitrate=N/A speed=  16x    frame=18413 fps=384 q=-0.0 size=N/A time=00:12:47.97 bitrate=N/A speed=  16x    frame=18622 fps=384 q=-0.0 size=N/A time=00:12:56.69 bitrate=N/A speed=  16x    frame=18828 fps=384 q=-0.0 size=N/A time=00:13:05.28 bitrate=N/A speed=  16x    frame=19040 fps=384 q=-0.0 size=N/A time=00:13:14.12 bitrate=N/A speed=  16x    frame=19248 fps=385 q=-0.0 size=N/A time=00:13:22.80 bitrate=N/A speed=  16x    frame=19482 fps=385 q=-0.0 size=N/A time=00:13:32.56 bitrate=N/A speed=16.1x    frame=19689 fps=386 q=-0.0 size=N/A time=00:13:41.19 bitrate=N/A speed=16.1x    frame=19917 fps=386 q=-0.0 size=N/A time=00:13:50.70 bitrate=N/A speed=16.1x    frame=20138 fps=387 q=-0.0 size=N/A time=00:13:59.92 bitrate=N/A speed=16.1x    frame=20381 fps=387 q=-0.0 size=N/A time=00:14:10.05 bitrate=N/A speed=16.2x    frame=20615 fps=388 q=-0.0 size=N/A time=00:14:19.81 bitrate=N/A speed=16.2x    frame=20775 fps=387 q=-0.0 size=N/A time=00:14:26.49 bitrate=N/A speed=16.2x    frame=20942 fps=387 q=-0.0 size=N/A time=00:14:33.45 bitrate=N/A speed=16.1x    frame=21129 fps=386 q=-0.0 size=N/A time=00:14:41.25 bitrate=N/A speed=16.1x    frame=21344 fps=387 q=-0.0 size=N/A time=00:14:50.22 bitrate=N/A speed=16.1x    frame=21516 fps=386 q=-0.0 size=N/A time=00:14:57.39 bitrate=N/A speed=16.1x    frame=21695 fps=386 q=-0.0 size=N/A time=00:15:04.86 bitrate=N/A speed=16.1x    frame=21906 fps=386 q=-0.0 size=N/A time=00:15:13.66 bitrate=N/A speed=16.1x    frame=22104 fps=386 q=-0.0 size=N/A time=00:15:21.92 bitrate=N/A speed=16.1x    frame=22338 fps=387 q=-0.0 size=N/A time=00:15:31.68 bitrate=N/A speed=16.1x    frame=22570 fps=387 q=-0.0 size=N/A time=00:15:41.35 bitrate=N/A speed=16.1x    frame=22795 fps=388 q=-0.0 size=N/A time=00:15:50.74 bitrate=N/A speed=16.2x    frame=23009 fps=388 q=-0.0 size=N/A time=00:15:59.66 bitrate=N/A speed=16.2x    frame=23218 fps=388 q=-0.0 size=N/A time=00:16:08.38 bitrate=N/A speed=16.2x    frame=23428 fps=388 q=-0.0 size=N/A time=00:16:17.14 bitrate=N/A speed=16.2x    frame=23656 fps=389 q=-0.0 size=N/A time=00:16:26.65 bitrate=N/A speed=16.2x    frame=23867 fps=389 q=-0.0 size=N/A time=00:16:35.45 bitrate=N/A speed=16.2x    frame=24071 fps=389 q=-0.0 size=N/A time=00:16:43.96 bitrate=N/A speed=16.2x    frame=24296 fps=389 q=-0.0 size=N/A time=00:16:53.34 bitrate=N/A speed=16.2x    frame=24532 fps=390 q=-0.0 size=N/A time=00:17:03.18 bitrate=N/A speed=16.3x    frame=24752 fps=390 q=-0.0 size=N/A time=00:17:12.36 bitrate=N/A speed=16.3x    frame=25006 fps=391 q=-0.0 size=N/A time=00:17:22.95 bitrate=N/A speed=16.3x    frame=25245 fps=391 q=-0.0 size=N/A time=00:17:32.92 bitrate=N/A speed=16.3x    frame=25483 fps=392 q=-0.0 size=N/A time=00:17:42.85 bitrate=N/A speed=16.4x    frame=25706 fps=392 q=-0.0 size=N/A time=00:17:52.15 bitrate=N/A speed=16.4x    frame=25942 fps=393 q=-0.0 size=N/A time=00:18:01.99 bitrate=N/A speed=16.4x    frame=26190 fps=394 q=-0.0 size=N/A time=00:18:12.34 bitrate=N/A speed=16.4x    frame=26423 fps=394 q=-0.0 size=N/A time=00:18:22.05 bitrate=N/A speed=16.4x    frame=26670 fps=395 q=-0.0 size=N/A time=00:18:32.36 bitrate=N/A speed=16.5x    frame=26920 fps=395 q=-0.0 size=N/A time=00:18:42.78 bitrate=N/A speed=16.5x    frame=27124 fps=395 q=-0.0 size=N/A time=00:18:51.29 bitrate=N/A speed=16.5x    frame=27365 fps=396 q=-0.0 size=N/A time=00:19:01.34 bitrate=N/A speed=16.5x    frame=27594 fps=396 q=-0.0 size=N/A time=00:19:10.89 bitrate=N/A speed=16.5x    frame=27808 fps=396 q=-0.0 size=N/A time=00:19:19.82 bitrate=N/A speed=16.5x    frame=28026 fps=396 q=-0.0 size=N/A time=00:19:28.91 bitrate=N/A speed=16.5x    frame=28225 fps=396 q=-0.0 size=N/A time=00:19:37.21 bitrate=N/A speed=16.5x    frame=28437 fps=397 q=-0.0 size=N/A time=00:19:46.05 bitrate=N/A speed=16.5x    frame=28657 fps=397 q=-0.0 size=N/A time=00:19:55.23 bitrate=N/A speed=16.5x    frame=28872 fps=397 q=-0.0 size=N/A time=00:20:04.20 bitrate=N/A speed=16.6x    frame=29102 fps=397 q=-0.0 size=N/A time=00:20:13.79 bitrate=N/A speed=16.6x    frame=29321 fps=397 q=-0.0 size=N/A time=00:20:22.93 bitrate=N/A speed=16.6x    frame=29546 fps=398 q=-0.0 size=N/A time=00:20:32.31 bitrate=N/A speed=16.6x    frame=29739 fps=398 q=-0.0 size=N/A time=00:20:40.36 bitrate=N/A speed=16.6x    frame=29937 fps=397 q=-0.0 size=N/A time=00:20:48.62 bitrate=N/A speed=16.6x    frame=30108 fps=397 q=-0.0 size=N/A time=00:20:55.75 bitrate=N/A speed=16.6x    frame=30301 fps=397 q=-0.0 size=N/A time=00:21:03.80 bitrate=N/A speed=16.6x    frame=30474 fps=396 q=-0.0 size=N/A time=00:21:11.01 bitrate=N/A speed=16.5x    frame=30655 fps=396 q=-0.0 size=N/A time=00:21:18.56 bitrate=N/A speed=16.5x    frame=30819 fps=396 q=-0.0 size=N/A time=00:21:25.40 bitrate=N/A speed=16.5x    frame=31049 fps=396 q=-0.0 size=N/A time=00:21:35.00 bitrate=N/A speed=16.5x    frame=31278 fps=396 q=-0.0 size=N/A time=00:21:44.55 bitrate=N/A speed=16.5x    frame=31486 fps=396 q=-0.0 size=N/A time=00:21:53.22 bitrate=N/A speed=16.5x    frame=31713 fps=397 q=-0.0 size=N/A time=00:22:02.69 bitrate=N/A speed=16.5x    frame=31953 fps=397 q=-0.0 size=N/A time=00:22:12.70 bitrate=N/A speed=16.6x    frame=32197 fps=398 q=-0.0 size=N/A time=00:22:22.88 bitrate=N/A speed=16.6x    frame=32421 fps=398 q=-0.0 size=N/A time=00:22:32.22 bitrate=N/A speed=16.6x    frame=32671 fps=398 q=-0.0 size=N/A time=00:22:42.65 bitrate=N/A speed=16.6x    frame=32902 fps=399 q=-0.0 size=N/A time=00:22:52.28 bitrate=N/A speed=16.6x    frame=33130 fps=399 q=-0.0 size=N/A time=00:23:01.79 bitrate=N/A speed=16.6x    frame=33322 fps=399 q=-0.0 size=N/A time=00:23:09.80 bitrate=N/A speed=16.6x    frame=33520 fps=399 q=-0.0 size=N/A time=00:23:18.06 bitrate=N/A speed=16.6x    frame=33728 fps=399 q=-0.0 size=N/A time=00:23:26.73 bitrate=N/A speed=16.6x    frame=33941 fps=399 q=-0.0 size=N/A time=00:23:35.62 bitrate=N/A speed=16.6x    frame=34147 fps=399 q=-0.0 size=N/A time=00:23:44.21 bitrate=N/A speed=16.6x    frame=34347 fps=399 q=-0.0 size=N/A time=00:23:52.55 bitrate=N/A speed=16.6x    frame=34495 fps=398 q=-0.0 size=N/A time=00:23:58.72 bitrate=N/A speed=16.6x    frame=34679 fps=398 q=-0.0 size=N/A time=00:24:06.40 bitrate=N/A speed=16.6x    frame=34886 fps=398 q=-0.0 size=N/A time=00:24:15.03 bitrate=N/A speed=16.6x    [Parsed_ssim_10 @ 000001caf541c0c0] SSIM Y:0.993337 (21.762995) U:0.993799 (22.075538) V:0.993735 (22.030653) All:0.993480 (21.857540)
[out#0/null @ 000001caf2c3abc0] video:15063KiB audio:274156KiB subtitle:0KiB other streams:0KiB global headers:0KiB muxing overhead: unknown
frame=35056 fps=398 q=-0.0 Lsize=N/A time=00:24:22.12 bitrate=N/A speed=16.6x    
